<svg width="120" height="30" viewBox="0 0 120 30" fill="none" xmlns="http://www.w3.org/2000/svg">
<path fill-rule="evenodd" clip-rule="evenodd" d="M10.5841 0C8.37656 0 5.74565 2.14067 3.59859 5.74924C1.33057 9.5107 0 14.1284 0 18.1651C0 24.0673 3.26595 30 10.5841 30C17.9022 30 21.1682 24.0673 21.1682 18.1651C21.1682 14.1284 19.8376 9.5107 17.5696 5.77982C15.4225 2.14067 12.7916 0 10.5841 0ZM67.7685 8.83792H75.1774V28.3792H83.1305V8.83792H90.5394V1.6208H67.7685V8.83792ZM107.504 8.83792H119.147V1.6208H107.504C96.7992 1.6208 91.0837 7.00306 91.0837 15.0153C91.0837 23.0275 96.7992 28.4098 107.504 28.4098H119.147V21.1621H107.504C102.545 21.1621 99.3091 19.3578 99.3091 15.0153C99.3091 10.6728 102.545 8.83792 107.504 8.83792ZM51.6202 1.6208L47.3865 17.6147L43.1529 1.6208H29.1214V28.4098H37.0746V6.6055L42.8505 28.3792H51.9528L57.7287 6.57492V28.3792H65.6819V1.6208H51.6202Z" fill="#FF4646"/>
</svg>
