<svg width="153" height="42" viewBox="0 0 153 42" fill="none" xmlns="http://www.w3.org/2000/svg">
<path d="M1.428 37.128V30.576H0V39.396H1.26L5.124 33.096V39.396H6.468V30.576H5.292L1.428 37.128ZM13.188 35.448H10.164V32.928H8.82V39.396H10.164V36.624H13.188V39.396H14.532V32.928H13.188V35.448ZM16.128 34.188H18.564V39.396H19.908V34.188H22.26V32.928H16.128V34.188ZM35.952 32.844C35.5729 32.8378 35.198 32.9243 34.86 33.096C34.5021 33.2419 34.185 33.4725 33.936 33.768L33.6 34.104V33.096H32.256V42H33.6V38.472L33.936 38.808C34.2164 39.0444 34.5271 39.2421 34.86 39.396C35.1863 39.4995 35.5257 39.556 35.868 39.564C36.2837 39.5667 36.6949 39.4777 37.0724 39.3035C37.4499 39.1293 37.7843 38.8741 38.052 38.556C38.6482 37.8847 38.977 37.0178 38.976 36.12C38.9919 35.6729 38.9184 35.2271 38.7597 34.8088C38.6011 34.3905 38.3604 34.0081 38.052 33.684C37.4895 33.1391 36.7351 32.8374 35.952 32.844ZM37.128 37.8C36.9346 38.0086 36.7009 38.1757 36.441 38.2912C36.1811 38.4067 35.9004 38.4682 35.616 38.472C35.3288 38.4872 35.0421 38.4342 34.7794 38.3174C34.5166 38.2006 34.2851 38.0233 34.104 37.8C33.9058 37.5858 33.7518 37.3345 33.6509 37.0606C33.55 36.7867 33.5042 36.4956 33.516 36.204C33.4968 35.9116 33.5392 35.6185 33.6404 35.3435C33.7417 35.0686 33.8997 34.818 34.104 34.608C34.3019 34.411 34.5383 34.2571 34.7985 34.1559C35.0587 34.0547 35.3371 34.0084 35.616 34.02C35.9032 34.0048 36.1899 34.0578 36.4526 34.1746C36.7154 34.2914 36.9468 34.4687 37.128 34.692C37.3323 34.902 37.4903 35.1526 37.5916 35.4275C37.6928 35.7025 37.7352 35.9956 37.716 36.288C37.7155 36.8477 37.5058 37.387 37.128 37.8ZM45.276 35.448H42.252V32.928H40.908V39.396H42.252V36.624H45.276V39.396H46.62V32.928H45.276V35.448ZM56.616 34.188H59.052V39.396H60.396V34.188H62.664V32.928H56.616V34.188ZM64.512 35.616H67.368V36.876H64.512V35.616ZM73.416 32.844C72.881 32.8135 72.3511 32.962 71.9099 33.2663C71.4688 33.5705 71.1416 34.0131 70.98 34.524L70.56 35.532V34.44C70.5804 33.9549 70.6652 33.4748 70.812 33.012C70.9898 32.6501 71.2485 32.334 71.568 32.088C71.9412 31.8209 72.3735 31.648 72.828 31.584C73.4687 31.5036 74.1148 31.4756 74.76 31.5C75.1817 31.5139 75.6038 31.4857 76.02 31.416V30.24C75.684 30.24 75.18 30.324 74.592 30.324C73.7768 30.3159 72.9623 30.3721 72.156 30.492C71.6483 30.5997 71.1644 30.7989 70.728 31.08C70.2836 31.4171 69.9596 31.8884 69.804 32.424C69.5058 33.2006 69.3631 34.0283 69.384 34.86C69.38 35.5955 69.4646 36.3288 69.636 37.044C69.8338 37.7405 70.2451 38.3575 70.812 38.808C71.3997 39.3019 72.1443 39.5699 72.912 39.564C73.3784 39.5755 73.8424 39.4921 74.2756 39.3189C74.7089 39.1457 75.1024 38.8863 75.4323 38.5563C75.7623 38.2264 76.0217 37.8329 76.1949 37.3996C76.3681 36.9664 76.4515 36.5024 76.44 36.036C76.4562 35.6015 76.3825 35.1683 76.2235 34.7636C76.0645 34.3588 75.8236 33.9913 75.516 33.684C75.2396 33.4111 74.9114 33.1963 74.5508 33.052C74.1902 32.9078 73.8043 32.837 73.416 32.844ZM74.508 37.8C74.0957 38.179 73.556 38.3893 72.996 38.3893C72.436 38.3893 71.8963 38.179 71.484 37.8C71.2797 37.59 71.1217 37.3394 71.0204 37.0645C70.9192 36.7895 70.8768 36.4964 70.896 36.204C70.9121 35.6473 71.1198 35.1133 71.484 34.692C71.6774 34.4834 71.9111 34.3163 72.171 34.2008C72.4309 34.0853 72.7116 34.0238 72.996 34.02C73.2841 33.9968 73.5734 34.0462 73.8375 34.1636C74.1016 34.281 74.3321 34.4626 74.508 34.692C74.705 34.8899 74.8589 35.1263 74.9601 35.3865C75.0613 35.6467 75.1075 35.925 75.096 36.204C75.1078 36.4956 75.062 36.7867 74.9611 37.0606C74.8602 37.3345 74.7062 37.5858 74.508 37.8ZM80.976 37.548V37.464L79.044 32.928H77.7L80.22 39.144L78.876 41.916H80.304L84.504 32.928H83.076L80.976 37.548ZM91.56 32.928H90.048L88.62 34.944L87.108 32.928H85.512L87.78 36.036L85.26 39.396H86.856L88.62 37.044L90.3 39.396H91.896L89.292 35.952L91.56 32.928ZM93.324 39.396H94.668V34.188H97.02V32.928H93.324V39.396ZM103.74 34.02L103.404 33.684C103.155 33.3885 102.838 33.1578 102.48 33.012C102.139 32.8492 101.766 32.7632 101.388 32.76C100.981 32.7603 100.578 32.8423 100.202 33.001C99.8274 33.1597 99.4879 33.3919 99.204 33.684C98.6078 34.3553 98.279 35.2222 98.28 36.12C98.2633 37.0206 98.5942 37.893 99.204 38.556C99.4717 38.8741 99.8061 39.1293 100.184 39.3035C100.561 39.4777 100.972 39.5667 101.388 39.564C101.73 39.556 102.07 39.4995 102.396 39.396C102.754 39.2501 103.071 39.0195 103.32 38.724L103.656 38.388V39.396H105V32.928H103.656V34.02H103.74ZM103.236 37.8C103.043 38.0086 102.809 38.1757 102.549 38.2912C102.289 38.4067 102.008 38.4682 101.724 38.472C101.437 38.4872 101.15 38.4342 100.887 38.3174C100.625 38.2006 100.393 38.0233 100.212 37.8C99.8327 37.3547 99.6244 36.7889 99.6244 36.204C99.6244 35.6191 99.8327 35.0533 100.212 34.608C100.405 34.3994 100.639 34.2323 100.899 34.1168C101.159 34.0013 101.44 33.9398 101.724 33.936C102.003 33.9244 102.281 33.9707 102.541 34.0719C102.802 34.1731 103.038 34.327 103.236 34.524C103.44 34.734 103.598 34.9846 103.7 35.2595C103.801 35.5345 103.843 35.8276 103.824 36.12C103.851 36.4257 103.812 36.7335 103.71 37.0232C103.609 37.3128 103.447 37.5776 103.236 37.8ZM109.368 32.928L106.512 39.396H107.856L109.788 34.776L111.72 39.396H113.064L110.208 32.928H109.368ZM113.82 34.188H116.256V39.396H117.684V34.188H119.952V32.928H113.82V34.188ZM133.644 32.844C133.265 32.8378 132.89 32.9243 132.552 33.096C132.194 33.2419 131.877 33.4725 131.628 33.768L131.292 34.104V33.096H129.948V42H131.292V38.472L131.628 38.808C131.924 39.0651 132.266 39.2645 132.636 39.396C132.964 39.4928 133.302 39.5492 133.644 39.564C134.06 39.5667 134.471 39.4777 134.848 39.3035C135.226 39.1293 135.56 38.8741 135.828 38.556C136.424 37.8847 136.753 37.0178 136.752 36.12C136.768 35.6729 136.694 35.2271 136.536 34.8088C136.377 34.3905 136.136 34.0081 135.828 33.684C135.233 33.1376 134.452 32.8374 133.644 32.844ZM134.82 37.8C134.627 38.0086 134.393 38.1757 134.133 38.2912C133.873 38.4067 133.592 38.4682 133.308 38.472C133.021 38.4872 132.734 38.4342 132.471 38.3174C132.209 38.2006 131.977 38.0233 131.796 37.8C131.598 37.5858 131.444 37.3345 131.343 37.0606C131.242 36.7867 131.196 36.4956 131.208 36.204C131.189 35.9116 131.231 35.6185 131.332 35.3435C131.434 35.0686 131.592 34.818 131.796 34.608C131.994 34.411 132.23 34.2571 132.491 34.1559C132.751 34.0547 133.029 34.0084 133.308 34.02C133.595 34.0048 133.882 34.0578 134.145 34.1746C134.407 34.2914 134.639 34.4687 134.82 34.692C135.024 34.902 135.182 35.1526 135.284 35.4275C135.385 35.7025 135.427 35.9956 135.408 36.288C135.427 36.5678 135.384 36.8483 135.283 37.1096C135.181 37.371 135.023 37.6067 134.82 37.8ZM139.944 37.296V32.928H138.6V39.396H139.272L143.052 35.196V39.396H144.396V32.928H143.808L139.944 37.296ZM147.756 33.096C147.382 33.2113 147.057 33.4477 146.832 33.768C146.557 34.1303 146.41 34.5732 146.412 35.028C146.394 35.3941 146.514 35.7536 146.748 36.036C146.837 36.1892 146.958 36.3211 147.103 36.4227C147.248 36.5243 147.414 36.5929 147.588 36.624L147.84 36.708V36.792L145.992 39.48H147.588L149.268 36.96H149.94V39.48H151.284V33.012H149.688C149.043 32.9415 148.392 32.9698 147.756 33.096ZM149.856 36.036H149.184C148.092 36.036 147.84 35.448 147.84 35.028C147.84 34.608 148.008 34.02 149.016 34.02H149.856V36.036ZM124.656 32.76C124.203 32.7551 123.754 32.8419 123.335 33.0151C122.916 33.1883 122.537 33.4444 122.22 33.768C121.587 34.3884 121.225 35.2337 121.212 36.12C121.212 37.0334 121.575 37.9094 122.221 38.5553C122.867 39.2012 123.743 39.564 124.656 39.564C125.346 39.5769 126.022 39.3711 126.588 38.976C127.105 38.655 127.514 38.187 127.764 37.632H126.42C126.239 37.9081 125.989 38.1314 125.693 38.279C125.398 38.4265 125.069 38.4931 124.74 38.472C124.221 38.4712 123.717 38.2934 123.312 37.968C122.936 37.6358 122.672 37.1958 122.556 36.708L122.472 36.456H128.016V36.288C128.018 35.3393 127.691 34.4193 127.092 33.684C126.768 33.3756 126.386 33.1349 125.967 32.9763C125.549 32.8176 125.103 32.7441 124.656 32.76ZM122.556 35.7L122.64 35.448C122.74 34.9741 123.007 34.552 123.393 34.2589C123.778 33.9658 124.257 33.8214 124.74 33.852C125.217 33.8064 125.693 33.947 126.069 34.2445C126.445 34.5419 126.691 34.9732 126.756 35.448L126.84 35.7H122.556ZM26.964 32.76C26.0506 32.76 25.1746 33.1228 24.5287 33.7687C23.8828 34.4146 23.52 35.2906 23.52 36.204C23.52 37.1174 23.8828 37.9934 24.5287 38.6393C25.1746 39.2851 26.0506 39.648 26.964 39.648C27.6539 39.6609 28.3302 39.4551 28.896 39.06C29.413 38.739 29.8225 38.271 30.072 37.716H28.728C28.5473 37.9921 28.2966 38.2154 28.0015 38.363C27.7063 38.5105 27.3773 38.5771 27.048 38.556C26.5285 38.5552 26.0249 38.3774 25.62 38.052C25.2443 37.7198 24.9803 37.2798 24.864 36.792L24.78 36.54H30.324V36.372C30.3259 35.4233 29.9995 34.5033 29.4 33.768C29.0927 33.4317 28.7151 33.1671 28.2942 32.9929C27.8732 32.8187 27.4191 32.7392 26.964 32.76ZM24.864 35.7L24.948 35.448C25.0479 34.9741 25.3152 34.552 25.7008 34.2589C26.0864 33.9658 26.5646 33.8214 27.048 33.852C27.5251 33.8064 28.0013 33.947 28.3771 34.2445C28.7528 34.5419 28.999 34.9732 29.064 35.448L29.148 35.7H24.864ZM51.912 32.76C51.459 32.7551 51.0096 32.8419 50.591 33.0151C50.1724 33.1883 49.7931 33.4444 49.476 33.768C48.8429 34.3884 48.4806 35.2337 48.468 36.12C48.468 37.0334 48.8308 37.9094 49.4767 38.5553C50.1226 39.2012 50.9986 39.564 51.912 39.564C52.6019 39.5769 53.2782 39.3711 53.844 38.976C54.361 38.655 54.7705 38.187 55.02 37.632H53.676C53.4953 37.9081 53.2446 38.1314 52.9495 38.279C52.6543 38.4265 52.3253 38.4931 51.996 38.472C51.4765 38.4712 50.9729 38.2934 50.568 37.968C50.1923 37.6358 49.9283 37.1958 49.812 36.708L49.728 36.456H55.272V36.288C55.2739 35.3393 54.9475 34.4193 54.348 33.684C53.6723 33.0951 52.8083 32.7674 51.912 32.76ZM49.812 35.7L49.896 35.448C49.9959 34.9741 50.2632 34.552 50.6488 34.2589C51.0344 33.9658 51.5126 33.8214 51.996 33.852C52.4731 33.8064 52.9493 33.947 53.3251 34.2445C53.7008 34.5419 53.947 34.9732 54.012 35.448L54.096 35.7H49.812ZM20.16 0.84H19.32L11.76 20.748L4.2 0.84H0V25.2H3.36V7.476L10.08 25.2H13.44L20.16 7.476V25.2H23.52V0.84H20.16ZM35.28 25.2C37.1075 25.2 38.894 24.6581 40.4135 23.6428C41.933 22.6275 43.1173 21.1844 43.8166 19.496C44.516 17.8076 44.699 15.9497 44.3425 14.1574C43.9859 12.365 43.1059 10.7186 41.8137 9.42633C40.5214 8.1341 38.875 7.25407 37.0826 6.89754C35.2902 6.54102 33.4324 6.724 31.744 7.42335C30.0556 8.12271 28.6125 9.30702 27.5972 10.8265C26.5819 12.346 26.04 14.1325 26.04 15.96C26.04 18.4106 27.0135 20.7608 28.7463 22.4937C30.4792 24.2265 32.8294 25.2 35.28 25.2ZM35.28 10.08C36.443 10.08 37.5798 10.4249 38.5468 11.071C39.5137 11.7171 40.2674 12.6354 40.7124 13.7098C41.1575 14.7843 41.2739 15.9665 41.047 17.1071C40.8201 18.2477 40.2601 19.2955 39.4378 20.1178C38.6155 20.9401 37.5677 21.5001 36.4271 21.727C35.2865 21.9539 34.1043 21.8375 33.0298 21.3924C31.9554 20.9474 31.0371 20.1937 30.391 19.2268C29.7449 18.2598 29.4 17.123 29.4 15.96C29.4 14.4005 30.0195 12.9049 31.1222 11.8022C32.2249 10.6995 33.7205 10.08 35.28 10.08ZM142.8 25.2C144.628 25.2 146.414 24.6581 147.933 23.6428C149.453 22.6275 150.637 21.1844 151.337 19.496C152.036 17.8076 152.219 15.9497 151.862 14.1574C151.506 12.365 150.626 10.7186 149.334 9.42633C148.041 8.1341 146.395 7.25407 144.603 6.89754C142.81 6.54102 140.952 6.724 139.264 7.42335C137.576 8.12271 136.133 9.30702 135.117 10.8265C134.102 12.346 133.56 14.1325 133.56 15.96C133.56 18.4106 134.533 20.7608 136.266 22.4937C137.999 24.2265 140.349 25.2 142.8 25.2ZM142.8 10.08C143.963 10.08 145.1 10.4249 146.067 11.071C147.034 11.7171 147.787 12.6354 148.232 13.7098C148.677 14.7843 148.794 15.9665 148.567 17.1071C148.34 18.2477 147.78 19.2955 146.958 20.1178C146.135 20.9401 145.088 21.5001 143.947 21.727C142.807 21.9539 141.624 21.8375 140.55 21.3924C139.475 20.9474 138.557 20.1937 137.911 19.2268C137.265 18.2598 136.92 17.123 136.92 15.96C136.92 14.4005 137.539 12.9049 138.642 11.8022C139.745 10.6995 141.241 10.08 142.8 10.08ZM81.48 25.2H95.76V21.84H93.66L88.2 6.72H84.84L79.38 21.84H77.28V25.2H81.48ZM86.52 11.34L90.3 21.84H82.656L86.52 11.34ZM126 6.72H122.64L115.92 25.2H119.28L124.32 11.34L129.36 25.2H132.72L126 6.72ZM52.08 3.36H60.48V5.04H52.08V3.36ZM52.08 0H60.48V1.68H52.08V0ZM61.32 20.076C60.7742 20.6369 60.121 21.0822 59.3994 21.3852C58.6779 21.6883 57.9026 21.843 57.12 21.84H56.28C55.0149 21.8385 53.784 21.4291 52.7702 20.6724C51.7563 19.9158 51.0135 18.8524 50.652 17.64H65.352C65.4537 17.0855 65.5099 16.5236 65.52 15.96C65.52 14.1325 64.9781 12.346 63.9628 10.8265C62.9475 9.30702 61.5044 8.12271 59.816 7.42335C58.1276 6.724 56.2697 6.54102 54.4774 6.89754C52.685 7.25407 51.0386 8.1341 49.7463 9.42633C48.4541 10.7186 47.5741 12.365 47.2175 14.1574C46.861 15.9497 47.044 17.8076 47.7434 19.496C48.4427 21.1844 49.627 22.6275 51.1465 23.6428C52.666 24.6581 54.4525 25.2 56.28 25.2H57.12C58.6064 25.2077 60.0722 24.852 61.3898 24.1639C62.7074 23.4758 63.8369 22.4762 64.68 21.252L61.32 20.076ZM56.28 10.08C57.5451 10.0815 58.776 10.4909 59.7898 11.2476C60.8037 12.0042 61.5465 13.0676 61.908 14.28H50.652C51.0135 13.0676 51.7563 12.0042 52.7702 11.2476C53.784 10.4909 55.0149 10.0815 56.28 10.08ZM110.88 20.076C110.334 20.6369 109.681 21.0822 108.959 21.3852C108.238 21.6883 107.463 21.843 106.68 21.84H105.84C104.575 21.8385 103.344 21.4291 102.33 20.6724C101.316 19.9158 100.573 18.8524 100.212 17.64H114.912C115.014 17.0855 115.07 16.5236 115.08 15.96C115.08 14.1325 114.538 12.346 113.523 10.8265C112.507 9.30702 111.064 8.12271 109.376 7.42335C107.688 6.724 105.83 6.54102 104.037 6.89754C102.245 7.25407 100.599 8.1341 99.3063 9.42633C98.0141 10.7186 97.1341 12.365 96.7775 14.1574C96.421 15.9497 96.604 17.8076 97.3034 19.496C98.0027 21.1844 99.187 22.6275 100.707 23.6428C102.226 24.6581 104.012 25.2 105.84 25.2H106.68C108.166 25.2077 109.632 24.852 110.95 24.1639C112.267 23.4758 113.397 22.4762 114.24 21.252L110.88 20.076ZM105.84 10.08C107.105 10.0815 108.336 10.4909 109.35 11.2476C110.364 12.0042 111.107 13.0676 111.468 14.28H100.212C100.573 13.0676 101.316 12.0042 102.33 11.2476C103.344 10.4909 104.575 10.0815 105.84 10.08Z" fill="#FF4646"/>
</svg>
